Coordinates
version=1
nRows=13
nColumns=36
inDegrees=yes

Units are S.I. units (second, meters, Newtons, ...)
If the header above contains a line with 'inDegrees', this indicates whether rotational values are in degrees (yes) or radians (no).

endheader
time	pelvis_tilt	pelvis_list	pelvis_rotation	pelvis_tx	pelvis_ty	pelvis_tz	hip_flexion_r	hip_adduction_r	hip_rotation_r	knee_angle_r	knee_angle_r_beta	ankle_angle_r	subtalar_angle_r	mtp_angle_r	hip_flexion_l	hip_adduction_l	hip_rotation_l	knee_angle_l	knee_angle_l_beta	ankle_angle_l	subtalar_angle_l	mtp_angle_l	lumbar_extension	lumbar_bending	lumbar_rotation	arm_flex_r	arm_add_r	arm_rot_r	elbow_flex_r	pro_sup_r	arm_flex_l	arm_add_l	arm_rot_l	elbow_flex_l	pro_sup_l
      0.00000000	     -1.38694697	     -2.38281009	      3.01015214	     -1.00985964	      1.34701192	     -0.04725034	     -3.35269577	      4.82005082	      7.58410386	      1.81173336	      0.03162071	      2.29083094	    -11.94879241	     -6.47082017	     -2.97230408	     -3.82086679	      3.44802162	      1.20849902	      0.02109229	      7.71146626	     -3.88104133	     -6.47082017	     -1.12476739	      0.60794172	     -0.52592551	     17.45166703	    -22.48337550	    -10.58670584	    132.67207978	     82.91185042	     -3.30360641	     -7.33922181	      2.78557644	     31.33324217	     73.37005412
      0.01666670	     -3.16826633	     -2.08760797	      1.92756785	     -1.00776909	      1.34050078	     -0.04655030	     -1.11763868	      4.25959278	      8.27498608	      2.52625814	      0.04409152	      4.99991783	     -9.80133680	     -6.77351945	     -0.76244616	     -2.80650420	      3.29120086	      1.75918327	      0.03070354	      7.37064966	     -3.43191922	     -6.77351945	      2.16658358	      0.83785145	     -1.42255980	     22.64201281	    -22.25608877	     -9.70092636	    132.95800625	     84.60581153	     -5.08068986	     -5.74085449	     -9.51681609	     31.73423236	     72.54605423
      0.03333330	     -4.28113842	     -1.25899526	      1.51644804	     -0.99959582	      1.33797118	     -0.05019046	     -0.64653989	      3.04669019	      7.27396031	      1.88305096	      0.03286544	      5.52000851	     -8.08395138	     -6.79273883	      0.03107328	     -1.68995229	      2.39057497	      1.76688244	      0.03083792	      7.17929573	     -2.53560465	     -6.79273883	      4.76768388	     -0.46854292	     -1.25145791	     26.78993600	    -23.80398685	     -9.77402932	    133.94416264	     85.14233492	     -6.20825976	     -6.65928446	    -10.30577449	     30.40100429	     72.50265298
      0.05000000	     -4.59845087	     -0.93026627	      1.26591659	     -0.99982127	      1.34525881	     -0.04948050	     -0.55249375	      2.59962461	      6.64051653	      1.63468442	      0.02853063	      5.36968294	     -7.78043720	     -7.02525726	     -0.24144381	     -1.25328198	      2.32392779	      1.00210237	      0.01748999	      6.58077557	     -2.71062897	     -7.02525726	      5.62458213	     -1.05318803	     -2.00847189	     35.48277949	    -24.94305458	     -7.27227072	    134.25229014	     90.93761415	     -7.59031296	     -6.24243826	    -17.54954848	     31.31293219	     77.08069850
      0.06666670	     -4.78075708	     -0.79262453	      1.35010098	     -0.99287275	      1.34066295	     -0.05428557	     -0.71596759	      2.35580940	      6.29958747	      1.32873717	      0.02319084	      5.29666518	     -7.41856500	     -7.08131548	     -0.50153952	     -0.96185153	      2.61785808	      0.60448654	      0.01055028	      6.54655105	     -2.69585966	     -7.08131548	      6.59321154	     -1.33330865	     -3.77613109	     45.11584902	    -26.27330353	     -4.13646332	    133.44023287	     90.00598369	     -9.78891653	     -5.65133857	    -21.06611541	     33.26560139	     77.50115732
      0.08333330	     -5.00105838	     -0.78389926	      1.37802963	     -1.00031747	      1.34424565	     -0.04898791	     -0.43004077	      2.43698996	      6.15586955	      1.20588141	      0.02104660	      5.18207143	     -7.54295147	     -7.09752144	     -0.31896444	     -0.98605106	      2.95887478	      0.46671773	      0.00814576	      6.39542167	     -2.89646136	     -7.09752144	      7.11264429	     -1.52197037	     -3.53067596	     54.84812868	    -28.22055675	     -1.22248360	    131.60777331	     90.18416708	     -8.81235684	     -5.70424936	    -21.88753175	     31.84498818	     78.16392526
      0.10000000	     -5.18699610	     -0.87685273	      1.88261161	     -0.99331859	      1.35025321	     -0.05513761	     -0.46692605	      2.46787949	      5.58195841	      0.92901616	      0.01621439	      4.87292120	     -7.21571020	     -7.12668651	     -0.15769009	     -1.04012163	      3.60195770	      0.38360190	      0.00669512	      6.16523915	     -2.67743819	     -7.12668651	      7.59082381	     -1.34365903	     -4.70013153	     65.18469544	    -28.51891470	      2.19580433	    127.54808155	     90.31654183	     -8.74217045	     -5.52828734	    -22.43128952	     30.73095619	     79.36510099
      0.11666670	     -5.24879047	     -0.93814491	      2.19191081	     -0.99408502	      1.34813315	     -0.05526192	     -0.52388305	      2.48096277	      5.18115667	      0.77264566	      0.01348521	      4.76770887	     -6.98376156	     -7.24173006	     -0.11925551	     -1.04055780	      4.05998677	      0.33785399	      0.00589666	      6.12130397	     -2.57356132	     -7.24173006	      7.59265655	     -1.07535471	     -4.48087622	     74.25121573	    -29.83016622	      5.60272524	    124.64259868	     89.49007541	     -7.76363077	     -5.61877407	    -21.12138468	     29.54013361	     80.54355043
      0.13333330	     -5.19416566	     -0.95337205	      2.54286085	     -0.99407746	      1.35055545	     -0.05550959	     -0.81653139	      2.43882521	      4.99952507	      0.63043313	      0.01100313	      4.71625929	     -6.86872485	     -7.27438602	     -0.14847678	     -1.03361456	      4.50305962	      0.33498532	      0.00584660	      6.01511616	     -2.46787913	     -7.27438602	      7.29967671	     -1.13355728	     -3.29548262	     82.52852583	    -31.51393981	      8.22066282	    121.85268869	     88.09342315	     -6.72805489	     -5.70589559	    -20.79448175	     30.36465129	     79.84486106
      0.15000000	     -5.39284905	     -1.00271650	      2.84170012	     -0.98810866	      1.35184196	     -0.06058869	     -0.83463889	      2.40962075	      4.34902660	      0.55655697	      0.00971375	      4.72133420	     -6.22677488	     -7.32325531	     -0.03140650	     -0.98806019	      4.87301740	      0.32755045	      0.00571683	      5.90155335	     -2.33538057	     -7.32325531	      7.76159664	     -0.68683849	     -2.86186778	     90.49760268	    -31.58635182	     11.98776318	    118.05154847	     88.07513426	     -6.22863473	     -6.12365540	    -17.69829827	     29.50260247	     81.63683021
      0.16666670	     -5.40665583	     -1.07151049	      3.28417386	     -0.98825415	      1.35440879	     -0.06091463	     -1.00695672	      2.37968976	      4.08917697	      0.44993231	      0.00785280	      4.77279656	     -5.76997982	     -7.35491077	     -0.06747021	     -0.98263232	      5.35846151	      0.32262199	      0.00563082	      5.74261802	     -2.40778715	     -7.35491077	      7.79605741	     -0.48093432	     -2.50889301	     99.83849494	    -31.30833368	     16.00566357	    113.31536774	     86.46631443	     -6.46117847	     -6.17746736	    -17.88570414	     31.02477335	     80.59085340
      0.18333330	     -5.22120671	     -1.09219925	      3.77364878	     -0.98949539	      1.35309945	     -0.06092634	     -1.31465670	      2.39073526	      3.73829640	      0.36872193	      0.00643541	      4.80846427	     -5.30123093	     -7.37807063	     -0.29317631	     -0.99965075	      5.74638370	      0.32669133	      0.00570184	      5.67294895	     -2.30323561	     -7.37807063	      7.63406274	     -0.46195791	     -1.90649790	    107.66994595	    -29.45887005	     18.37034059	    107.96577459	     85.11070862	     -6.22216114	     -6.27841323	    -18.00168505	     32.04635961	     79.64475524
      0.20000000	     -5.16740485	     -1.18605383	      4.03645248	     -0.98954605	      1.35185259	     -0.06131372	     -1.44109652	      2.42404308	      3.56990283	      0.33164631	      0.00578832	      4.78155357	     -4.89896544	     -7.41315158	     -0.36889222	     -1.08271275	      5.78101360	      0.33177527	      0.00579057	      5.58790979	     -2.49355853	     -7.41315158	      7.72776935	     -0.13884429	     -0.33314923	    114.85099594	    -28.69429367	     21.46532032	    102.81296611	     87.85378460	     -4.96480051	     -6.65746775	    -16.60230695	     31.38364514	     83.22181926
